<?xml version="1.0" encoding="UTF-8"?>
<svg xmlns="http://www.w3.org/2000/svg" xmlns:xlink="http://www.w3.org/1999/xlink" viewBox="0 0 48 48" width="48px" height="48px">
<g id="surface36374830">
<rect x="0" y="0" width="48" height="48" style="fill:rgb(0%,0%,0%);fill-opacity:1;stroke:none;"/>
<path style=" stroke:none;fill-rule:nonzero;fill:rgb(100%,100%,100%);fill-opacity:1;" d="M 25.878906 24 L 7.308594 42.570312 C 7.101562 42.128906 7 41.648438 7 41.148438 L 7 6.851562 C 7 6.351562 7.101562 5.871094 7.308594 5.429688 Z M 28 26.121094 L 34.210938 32.328125 L 12.160156 44.230469 C 11.640625 44.511719 11.070312 44.648438 10.5 44.648438 C 10.191406 44.648438 9.890625 44.609375 9.589844 44.53125 Z M 28 21.878906 L 9.601562 3.480469 C 10.449219 3.238281 11.359375 3.339844 12.160156 3.769531 L 34.210938 15.671875 Z M 45.789062 24 C 45.789062 25.289062 45.078125 26.46875 43.949219 27.078125 L 36.96875 30.851562 L 30.121094 24 L 36.96875 17.148438 L 43.949219 20.921875 C 45.078125 21.53125 45.789062 22.710938 45.789062 24 Z M 45.789062 24 "/>
</g>
</svg>
